<?xml version="1.0" encoding="utf-8"?>
<!-- Generator: Adobe Illustrator 26.3.1, SVG Export Plug-In . SVG Version: 6.00 Build 0)  -->
<svg version="1.1" id="Layer_1" xmlns="http://www.w3.org/2000/svg" xmlns:xlink="http://www.w3.org/1999/xlink" x="0px" y="0px"
	 viewBox="0 0 100 50" style="enable-background:new 0 0 100 50;" xml:space="preserve">
<style type="text/css">
	.st0{fill:none;stroke:#000000;stroke-width:2;stroke-miterlimit:10;}
</style>
<g>
	<g>
		<path d="M9.1,19.2v8.2H7.2l-2.9-4.3l0,0v4.3H2v-8.2h1.9l2.9,4.3h0.1v-4.3H9.1z"/>
		<path d="M13.1,27.5c-0.7,0-1.2-0.1-1.7-0.4s-0.8-0.6-1.1-1.1s-0.4-1-0.4-1.7c0-0.6,0.1-1.2,0.4-1.7s0.6-0.8,1.1-1.1
			c0.5-0.3,1-0.4,1.6-0.4c0.5,0,0.9,0.1,1.3,0.2c0.4,0.1,0.7,0.4,1,0.6s0.5,0.6,0.6,1s0.2,0.8,0.2,1.3v0.5h-5.5v-1.2H14
			c0-0.2,0-0.3-0.1-0.5c-0.1-0.1-0.2-0.2-0.3-0.3c-0.1-0.1-0.3-0.1-0.5-0.1s-0.3,0-0.5,0.1c-0.1,0.1-0.3,0.2-0.4,0.3
			c-0.1,0.1-0.1,0.3-0.1,0.5v1.3c0,0.2,0,0.4,0.1,0.5c0.1,0.2,0.2,0.3,0.4,0.4s0.3,0.1,0.6,0.1c0.2,0,0.3,0,0.4-0.1
			c0.1,0,0.2-0.1,0.3-0.2s0.2-0.2,0.2-0.3h2c-0.1,0.4-0.2,0.8-0.5,1.1c-0.3,0.3-0.6,0.6-1,0.7C14.2,27.4,13.7,27.5,13.1,27.5z"/>
		<path d="M18.1,27.4l-1.5-6.1h2.2l0.7,3.7l0,0l0.8-3.7h2.1l0.8,3.7l0,0l0.7-3.7h2.2l-1.5,6.1h-2.4l-0.9-3.3h-0.1l-0.9,3.3H18.1z"/>
		<path d="M31.1,27.4l-2.4-8.2h2.5l1.1,5h0.1l1.3-5h1.9l1.3,5H37l1.1-5h2.5l-2.4,8.2H36l-1.4-4.6h-0.1l-1.4,4.6
			C33.1,27.4,31.1,27.4,31.1,27.4z"/>
		<path d="M43,27.5c-0.4,0-0.7-0.1-1-0.2s-0.5-0.3-0.7-0.6c-0.2-0.3-0.3-0.6-0.3-1c0-0.3,0.1-0.6,0.2-0.9s0.3-0.4,0.5-0.6
			s0.4-0.3,0.7-0.3c0.3-0.1,0.6-0.1,0.9-0.2c0.3,0,0.6-0.1,0.8-0.1s0.4-0.1,0.5-0.2s0.1-0.2,0.1-0.3l0,0c0-0.2-0.1-0.3-0.2-0.4
			s-0.3-0.1-0.5-0.1s-0.4,0-0.5,0.1s-0.2,0.2-0.2,0.4h-2c0-0.4,0.1-0.7,0.4-1s0.5-0.6,0.9-0.8c0.4-0.2,0.9-0.3,1.5-0.3
			c0.4,0,0.8,0.1,1.2,0.2c0.3,0.1,0.6,0.2,0.9,0.4s0.4,0.4,0.6,0.6c0.1,0.2,0.2,0.5,0.2,0.8v4.2h-2.1v-0.9l0,0
			c-0.1,0.2-0.3,0.4-0.4,0.6s-0.4,0.2-0.6,0.3S43.3,27.5,43,27.5z M43.7,26.1c0.2,0,0.3,0,0.5-0.1c0.1-0.1,0.3-0.2,0.4-0.3
			c0.1-0.1,0.1-0.3,0.1-0.5v-0.5c-0.1,0-0.1,0-0.2,0.1c-0.1,0-0.1,0-0.2,0.1c-0.1,0-0.2,0-0.2,0.1c-0.1,0-0.2,0-0.3,0
			c-0.2,0-0.3,0.1-0.4,0.1c-0.1,0.1-0.2,0.1-0.2,0.2c-0.1,0.1-0.1,0.2-0.1,0.3c0,0.2,0.1,0.3,0.2,0.4C43.4,26,43.5,26.1,43.7,26.1z"
			/>
		<path d="M49.3,29.7c-0.3,0-0.5,0-0.7-0.1c-0.2,0-0.4-0.1-0.6-0.2l0.5-1.6c0.2,0.1,0.3,0.1,0.5,0.1c0.1,0,0.3,0,0.4,0
			s0.2-0.1,0.2-0.2v-0.1l-2.2-6.4h2.3l1,4.2h0.1l1-4.2h2.3l-2.2,6.6c-0.1,0.3-0.3,0.6-0.5,0.9s-0.5,0.5-0.8,0.6
			C50.2,29.6,49.8,29.7,49.3,29.7z"/>
		<path d="M61.3,21.8c0-0.3-0.1-0.5-0.3-0.6S60.6,21,60.2,21c-0.2,0-0.4,0-0.6,0.1s-0.3,0.1-0.3,0.2c-0.1,0.1-0.1,0.2-0.1,0.3
			c0,0.1,0,0.2,0.1,0.3s0.1,0.1,0.2,0.2c0.1,0.1,0.2,0.1,0.3,0.2s0.3,0.1,0.5,0.1l0.7,0.1c0.5,0.1,0.8,0.2,1.2,0.4
			c0.3,0.2,0.6,0.3,0.8,0.6c0.2,0.2,0.4,0.4,0.5,0.7c0.1,0.3,0.1,0.5,0.1,0.9c0,0.5-0.1,1-0.4,1.4c-0.3,0.4-0.6,0.7-1.1,0.8
			c-0.5,0.2-1.1,0.3-1.8,0.3s-1.3-0.1-1.9-0.3s-0.9-0.5-1.2-1c-0.3-0.4-0.4-1-0.4-1.7h2.1c0,0.2,0.1,0.5,0.2,0.6s0.3,0.3,0.5,0.4
			s0.4,0.1,0.7,0.1c0.2,0,0.4,0,0.6-0.1c0.2-0.1,0.3-0.1,0.4-0.2c0.1-0.1,0.1-0.2,0.1-0.4c0-0.1,0-0.2-0.1-0.3
			c-0.1-0.1-0.2-0.2-0.4-0.3c-0.2-0.1-0.4-0.1-0.7-0.2l-1-0.2c-0.7-0.2-1.3-0.4-1.7-0.8s-0.6-0.9-0.6-1.5c0-0.5,0.1-1,0.4-1.4
			c0.3-0.4,0.7-0.7,1.2-0.9c0.5-0.2,1.1-0.3,1.7-0.3c0.7,0,1.2,0.1,1.7,0.3c0.5,0.2,0.9,0.5,1.1,0.9c0.3,0.4,0.4,0.9,0.4,1.4
			L61.3,21.8L61.3,21.8z"/>
		<path d="M68,21.3v1.6h-4v-1.6H68z M64.8,19.8H67v5.6c0,0.1,0,0.2,0,0.2c0,0.1,0.1,0.1,0.1,0.1c0.1,0,0.1,0,0.2,0s0.1,0,0.2,0
			s0.2,0,0.2,0l0.3,1.5c-0.1,0-0.2,0.1-0.4,0.1c-0.2,0-0.4,0.1-0.6,0.1c-0.5,0-0.9,0-1.3-0.2c-0.3-0.1-0.6-0.3-0.8-0.6
			c-0.2-0.3-0.3-0.6-0.3-1.1v-5.7H64.8z"/>
		<path d="M72.9,24.7v-3.4h2.2v6.1H73v-1.2l0,0c-0.1,0.4-0.4,0.7-0.7,0.9s-0.7,0.3-1.2,0.3c-0.4,0-0.8-0.1-1.1-0.3
			c-0.3-0.2-0.6-0.5-0.7-0.8C69.1,26,69,25.6,69,25.1v-3.9h2.2v3.4c0,0.3,0.1,0.5,0.2,0.7c0.2,0.2,0.4,0.3,0.6,0.3s0.3,0,0.5-0.1
			c0.1-0.1,0.2-0.2,0.3-0.3C72.9,25.1,72.9,24.9,72.9,24.7z"/>
		<path d="M78.4,27.5c-0.4,0-0.8-0.1-1.2-0.3s-0.7-0.6-0.9-1c-0.2-0.5-0.3-1-0.3-1.8c0-0.7,0.1-1.3,0.3-1.8s0.5-0.8,0.9-1
			s0.8-0.3,1.2-0.3c0.3,0,0.6,0.1,0.8,0.2c0.2,0.1,0.4,0.2,0.6,0.4s0.3,0.4,0.4,0.6l0,0v-3.1h2.2v8.2h-2.2v-1l0,0
			c-0.1,0.2-0.2,0.4-0.4,0.6c-0.2,0.2-0.3,0.3-0.6,0.4C79,27.4,78.7,27.5,78.4,27.5z M79.2,25.8c0.2,0,0.4-0.1,0.5-0.2
			s0.3-0.3,0.3-0.5c0.1-0.2,0.1-0.5,0.1-0.8s0-0.6-0.1-0.8c-0.1-0.2-0.2-0.4-0.3-0.5c-0.1-0.1-0.3-0.2-0.5-0.2s-0.4,0.1-0.5,0.2
			s-0.3,0.3-0.3,0.5c-0.1,0.2-0.1,0.5-0.1,0.8s0,0.6,0.1,0.8c0.1,0.2,0.2,0.4,0.3,0.5C78.9,25.7,79,25.8,79.2,25.8z"/>
		<path d="M83.5,27.4v-6.1h2.2v6.1H83.5z M84.6,20.6c-0.3,0-0.6-0.1-0.8-0.3c-0.2-0.2-0.3-0.4-0.3-0.7c0-0.3,0.1-0.5,0.3-0.7
			c0.2-0.2,0.5-0.3,0.8-0.3s0.6,0.1,0.8,0.3c0.2,0.2,0.3,0.4,0.3,0.7c0,0.3-0.1,0.5-0.3,0.7C85.1,20.5,84.9,20.6,84.6,20.6z"/>
		<path d="M89.7,27.5c-0.7,0-1.2-0.1-1.7-0.4s-0.8-0.6-1.1-1.1c-0.3-0.5-0.4-1-0.4-1.7c0-0.6,0.1-1.2,0.4-1.7s0.6-0.8,1.1-1.1
			s1-0.4,1.7-0.4s1.2,0.1,1.7,0.4s0.8,0.6,1.1,1.1c0.3,0.5,0.4,1,0.4,1.7c0,0.6-0.1,1.2-0.4,1.7s-0.6,0.8-1.1,1.1
			C90.9,27.4,90.4,27.5,89.7,27.5z M89.7,25.9c0.2,0,0.3-0.1,0.5-0.2c0.1-0.1,0.2-0.3,0.3-0.5c0.1-0.2,0.1-0.5,0.1-0.8
			s0-0.6-0.1-0.8s-0.2-0.4-0.3-0.5c-0.1-0.1-0.3-0.2-0.5-0.2s-0.4,0.1-0.5,0.2s-0.2,0.3-0.3,0.5s-0.1,0.5-0.1,0.8s0,0.6,0.1,0.8
			c0.1,0.2,0.2,0.4,0.3,0.5C89.4,25.8,89.5,25.9,89.7,25.9z"/>
		<path d="M99.4,23.2h-2c0-0.1-0.1-0.2-0.1-0.3c-0.1-0.1-0.2-0.2-0.3-0.2c-0.1,0-0.3-0.1-0.4-0.1c-0.2,0-0.4,0-0.5,0.1
			s-0.2,0.2-0.2,0.3c0,0.1,0,0.2,0.1,0.3c0.1,0.1,0.2,0.1,0.5,0.2l1.2,0.2c0.6,0.1,1.1,0.3,1.4,0.6s0.5,0.6,0.5,1.1
			c0,0.4-0.1,0.8-0.4,1.1c-0.3,0.3-0.6,0.6-1,0.7c-0.4,0.2-0.9,0.3-1.5,0.3c-0.9,0-1.7-0.2-2.2-0.6s-0.8-0.9-0.9-1.5h2.2
			c0,0.2,0.1,0.3,0.3,0.4s0.4,0.2,0.6,0.2s0.4,0,0.5-0.1s0.2-0.2,0.2-0.3c0-0.1-0.1-0.2-0.2-0.3c-0.1-0.1-0.3-0.1-0.5-0.2L95.5,25
			c-0.6-0.1-1.1-0.3-1.4-0.6c-0.3-0.3-0.5-0.7-0.5-1.2c0-0.4,0.1-0.8,0.3-1.1s0.6-0.5,1-0.7s0.9-0.2,1.5-0.2c0.9,0,1.6,0.2,2.1,0.5
			C99.1,22.1,99.3,22.6,99.4,23.2z"/>
	</g>
</g>
<line class="st0" x1="2" y1="30.8" x2="99.6" y2="30.8"/>
<line class="st0" x1="2" y1="16.1" x2="99.6" y2="16.1"/>
</svg>
